<?xml version="1.0" encoding="UTF-8"?>
<svg xmlns="http://www.w3.org/2000/svg" xmlns:xlink="http://www.w3.org/1999/xlink" width="583.65pt" height="781.06pt" viewBox="0 0 583.65 781.06" version="1.1">
<defs>
<clipPath id="clip1">
  <path d="M 0 0 L 583.648438 0 L 583.648438 630 L 0 630 Z M 0 0 "/>
</clipPath>
<clipPath id="clip2">
  <path d="M 0 714 L 57 714 L 57 781.058594 L 0 781.058594 Z M 0 714 "/>
</clipPath>
<clipPath id="clip3">
  <path d="M 110 714 L 157 714 L 157 781.058594 L 110 781.058594 Z M 110 714 "/>
</clipPath>
<clipPath id="clip4">
  <path d="M 208 714 L 278 714 L 278 781.058594 L 208 781.058594 Z M 208 714 "/>
</clipPath>
<clipPath id="clip5">
  <path d="M 326 714 L 388 714 L 388 781.058594 L 326 781.058594 Z M 326 714 "/>
</clipPath>
<clipPath id="clip6">
  <path d="M 425 714 L 479 714 L 479 781.058594 L 425 781.058594 Z M 425 714 "/>
</clipPath>
<clipPath id="clip7">
  <path d="M 522 714 L 583.648438 714 L 583.648438 781.058594 L 522 781.058594 Z M 522 714 "/>
</clipPath>
</defs>
<g id="surface1">
<g clip-path="url(#clip1)" clip-rule="nonzero">
<path style=" stroke:none;fill-rule:nonzero;fill:rgb(22.698975%,72.898865%,78.799438%);fill-opacity:1;" d="M 490.84375 0 L 339.757813 177.238281 L 409.082031 258.539063 L 478.1875 177.464844 L 478.1875 451.972656 C 478.175781 451.960938 92.902344 0.015625 92.914063 0.00390625 L 0.0390625 34.480469 L 0.0351563 34.484375 L 0.0351563 595.046875 L 0.0507813 595.050781 L 93.25 629.324219 L 244.3125 452.105469 L 174.992188 370.808594 L 105.507813 452.222656 L 105.507813 177.675781 C 105.5 177.574219 105.488281 177.476563 105.484375 177.371094 C 105.492188 177.382813 105.503906 177.394531 105.515625 177.40625 L 105.515625 177.402344 L 105.535156 177.425781 L 105.535156 177.414063 L 105.539063 177.417969 L 490.632813 629.105469 L 583.652344 595.019531 L 583.652344 34.519531 "/>
</g>
<g clip-path="url(#clip2)" clip-rule="nonzero">
<path style=" stroke:none;fill-rule:nonzero;fill:rgb(22.698975%,72.898865%,78.799438%);fill-opacity:1;" d="M 43.496094 758.648438 L 13.246094 714.78125 L 0 714.78125 L 0 781.058594 L 13.335938 781.058594 L 13.335938 735.453125 L 44.828125 781.058594 L 56.882813 781.058594 L 56.882813 714.78125 L 43.496094 714.78125 "/>
</g>
<g clip-path="url(#clip3)" clip-rule="nonzero">
<path style=" stroke:none;fill-rule:nonzero;fill:rgb(22.698975%,72.898865%,78.799438%);fill-opacity:1;" d="M 123.890625 753.191406 L 151.804688 753.191406 L 151.804688 742.144531 L 123.984375 742.144531 L 123.984375 726.058594 L 156.023438 726.058594 L 156.066406 714.78125 L 110.554688 714.78125 L 110.554688 781.058594 L 156.527344 781.058594 L 156.527344 769.691406 L 123.890625 769.648438 "/>
</g>
<g clip-path="url(#clip4)" clip-rule="nonzero">
<path style=" stroke:none;fill-rule:nonzero;fill:rgb(22.698975%,72.898865%,78.799438%);fill-opacity:1;" d="M 242.785156 762.039063 L 227.613281 714.78125 L 208.183594 714.78125 L 208.183594 781.058594 L 221.65625 781.058594 L 221.65625 730.59375 L 237.515625 781.058594 L 248.011719 781.058594 L 263.964844 730.367188 L 263.964844 781.058594 L 277.484375 781.058594 L 277.484375 714.78125 L 258.097656 714.78125 "/>
</g>
<g clip-path="url(#clip5)" clip-rule="nonzero">
<path style=" stroke:none;fill-rule:nonzero;fill:rgb(22.698975%,72.898865%,78.799438%);fill-opacity:1;" d="M 348.207031 754.019531 L 357.097656 727.707031 L 365.855469 754.019531 Z M 349.996094 714.78125 L 326.253906 781.058594 L 339.683594 781.058594 L 345.230469 765.707031 L 369.0625 765.707031 L 374.472656 781.058594 L 387.808594 781.058594 L 364.113281 714.78125 "/>
</g>
<g clip-path="url(#clip6)" clip-rule="nonzero">
<path style=" stroke:none;fill-rule:nonzero;fill:rgb(22.698975%,72.898865%,78.799438%);fill-opacity:1;" d="M 425.621094 726.699219 L 445.652344 726.699219 L 445.652344 781.058594 L 459.082031 781.058594 L 459.082031 726.699219 L 478.652344 726.699219 L 478.652344 714.78125 L 425.621094 714.78125 "/>
</g>
<g clip-path="url(#clip7)" clip-rule="nonzero">
<path style=" stroke:none;fill-rule:nonzero;fill:rgb(22.698975%,72.898865%,78.799438%);fill-opacity:1;" d="M 580.636719 714.78125 L 566.425781 714.78125 L 553.320313 736.234375 L 540.074219 714.78125 L 523.527344 714.78125 L 544.882813 747.417969 L 522.839844 781.058594 L 537.230469 781.058594 L 551.898438 757.132813 L 566.839844 781.058594 L 583.523438 781.058594 L 560.195313 745.675781 "/>
</g>
</g>
</svg>
